HIERARCHY
ROOT Hips
{
	OFFSET 0.00000 0.00000 0.00000
	CHANNELS 6 Xposition Yposition Zposition Zrotation Yrotation Xrotation 
	JOINT LHipJoint
	{
		OFFSET 0 0 0
		CHANNELS 3 Zrotation Yrotation Xrotation
		JOINT LeftHip
		{
			OFFSET 1.54859 -1.61379 0.86856
			CHANNELS 3 Zrotation Yrotation Xrotation
			JOINT LeftKnee
			{
				OFFSET 2.25087 -6.18423 0.00000
				CHANNELS 3 Zrotation Yrotation Xrotation
				JOINT LeftAnkle
				{
					OFFSET 2.40328 -6.60297 0.00000
					CHANNELS 3 Zrotation Yrotation Xrotation
					JOINT LeftToe
					{
						OFFSET 0.17435 -0.47901 2.02453
						CHANNELS 3 Zrotation Yrotation Xrotation
						End Site
						{
							OFFSET 0.00000 -0.00000 1.04844
						}
					}
				}
			}
		}
	}
	JOINT RHipJoint
	{
		OFFSET 0 0 0
		CHANNELS 3 Zrotation Yrotation Xrotation
		JOINT RightHip
		{
			OFFSET -1.54669 -1.61379 0.86856
			CHANNELS 3 Zrotation Yrotation Xrotation
			JOINT RightKnee
			{
				OFFSET -2.28132 -6.26789 0.00000
				CHANNELS 3 Zrotation Yrotation Xrotation
				JOINT RightAnkle
				{
					OFFSET -2.51636 -6.91365 0.00000
					CHANNELS 3 Zrotation Yrotation Xrotation
					JOINT RightToe
					{
						OFFSET -0.15124 -0.41552 2.21090
						CHANNELS 3 Zrotation Yrotation Xrotation
						End Site
						{
							OFFSET -0.00000 -0.00000 1.13399
						}
					}
				}
			}
		}
	}
	JOINT lowerback
	{
		OFFSET 0 0 0
		CHANNELS 3 Zrotation Yrotation Xrotation
		JOINT Chest
		{
			OFFSET -0.04287 2.26161 -0.25690
			CHANNELS 3 Zrotation Yrotation Xrotation
			JOINT Chest2
			{
				OFFSET 0.02248 2.28395 -0.10140
				CHANNELS 3 Zrotation Yrotation Xrotation
				JOINT lowerneck
				{
					OFFSET 0 0 0
					CHANNELS 3 Zrotation Yrotation Xrotation
					JOINT Neck
					{
						OFFSET -0.11644 1.38496 0.11345
						CHANNELS 3 Zrotation Yrotation Xrotation
						JOINT Head
						{
							OFFSET 0.29383 1.36600 0.06642
							CHANNELS 3 Zrotation Yrotation Xrotation
							End Site
							{
								OFFSET 0.11075 1.41395 -0.00294
							}
						}
					}
				}
				JOINT LeftCollar
				{
					OFFSET 0 0 0
					CHANNELS 3 Zrotation Yrotation Xrotation
					JOINT LeftShoulder
					{
						OFFSET 3.51628 0.59542 -0.30346
CHANNELS 3 Zrotation Xrotation Yrotation
						JOINT LeftElbow
						{
OFFSET 0 -4.764050 0.000000
CHANNELS 3 Zrotation Xrotation Yrotation
							JOINT LeftWrist
							{
OFFSET 0 -3.137590 -0.000000
CHANNELS 3 Zrotation Xrotation Yrotation
								JOINT lhand
								{
									OFFSET 0 0 0
CHANNELS 3 Zrotation Xrotation Yrotation
									JOINT LFingers
									{
OFFSET 0 -0.732260 -0.000000
CHANNELS 3 Zrotation Xrotation Yrotation
										End Site
										{
OFFSET 0 -0.590370 -0.000000
										}
									}
								}
								JOINT LThumb
								{
OFFSET 0 0.000000 0.000000
CHANNELS 3 Zrotation Xrotation Yrotation
									End Site
									{
OFFSET 0 -0.599380 0.599380
									}
								}
							}
						}
					}
				}
				JOINT RightCollar
				{
					OFFSET 0 0 0
					CHANNELS 3 Zrotation Yrotation Xrotation
					JOINT RightShoulder
					{
						OFFSET -3.30990 0.84213 -0.36430
CHANNELS 3 Zrotation Xrotation Yrotation
						JOINT RightElbow
						{
OFFSET 0 -5.101610 -0.000000
CHANNELS 3 Zrotation Xrotation Yrotation
							JOINT RightWrist
							{
OFFSET 0 -3.232670 -0.000000
CHANNELS 3 Zrotation Xrotation Yrotation
								JOINT rhand
								{
									OFFSET 0 0 0
CHANNELS 3 Zrotation Xrotation Yrotation
									JOINT RFingers
									{
OFFSET 0 -0.702000 -0.000000
CHANNELS 3 Zrotation Xrotation Yrotation
										End Site
										{
OFFSET 0 -0.565970 -0.000000
										}
									}
								}
								JOINT RThumb
								{
OFFSET 0 0.000000 0.000000
CHANNELS 3 Zrotation Xrotation Yrotation
									End Site
									{
OFFSET 0 -0.574610 0.574610
									}
								}
							}
						}
					}
				}
			}
		}
	}
}
MOTION
Frames: 12
Frame Time: 0.008333333333333333
-12.016084 13.701282 -1.655059 -11.223203 120.360748 17.361533 0.000000 0.000000 0.000000 -11.781127 7.295031 -22.666890 8.395009 16.394705 53.961253 0.368292 -10.389021 -12.080693 5.920363 -14.347061 -44.654199 0.000000 0.000000 0.000000 19.550412 4.598359 -78.447814 -25.409954 -19.277276 106.005594 -0.355157 -9.303529 -18.232634 -4.480119 12.771419 -38.521841 -9.873005 1.628272 29.465596 0.407224 1.188198 11.780372 5.727577 0.940677 -2.869190 -17.203641 -13.536760 1.936192 36.381546 -11.540936 -33.376015 17.009250 -6.571439 -5.854869 0.000000 0.000000 0.000000 28.015769 -33.185889 10.718340 63.193432 -57.096279 37.011875 -22.652078 -85.251151 -44.406050 0.000000 0.000000 0.000000 -7.125000 0.000000 0.000000 -70.820687 60.736011 36.873728 0.000000 0.000000 0.000000 -9.180779 -10.884034 7.322178 -37.621531 -46.595735 -16.690183 -61.292678 -51.345589 -38.609722 0.000000 0.000000 0.000000 7.125000 0.000000 0.000000 -12.825750 -27.872263 -17.619277
-11.864853 13.709245 -1.761378 -11.649008 120.094244 17.143800 0.000000 0.000000 0.000000 -12.109780 7.427292 -21.498271 8.028026 16.126714 52.642358 0.260876 -10.069464 -10.604479 5.711690 -14.136583 -43.800996 0.000000 0.000000 0.000000 19.707235 5.323477 -79.403442 -24.969461 -19.387027 104.678382 -0.366872 -9.107986 -18.167901 -4.607956 12.925057 -39.093922 -9.647414 1.595215 29.292987 0.284271 1.186995 11.700916 5.460931 0.945030 -2.887771 -17.199323 -13.359480 1.973177 35.952237 -11.401207 -33.178844 16.820751 -6.467916 -5.904808 0.000000 0.000000 0.000000 27.658306 -31.774266 10.933419 64.200096 -57.318436 37.859026 -24.357634 -85.729054 -43.619349 0.000000 0.000000 0.000000 -7.125000 0.000000 0.000000 -70.951462 59.913034 35.651383 0.000000 0.000000 0.000000 -9.131938 -10.315103 6.818935 -37.732592 -46.667404 -16.770948 -61.010035 -52.245368 -38.388166 0.000000 0.000000 0.000000 7.125000 0.000000 0.000000 -12.789650 -27.450988 -17.530832
-11.713622 13.717208 -1.867696 -12.074813 119.827740 16.926066 0.000000 0.000000 0.000000 -12.438433 7.559553 -20.329652 7.661043 15.858723 51.323463 0.153461 -9.749907 -9.128266 5.503017 -13.926105 -42.947793 0.000000 0.000000 0.000000 19.864058 6.048595 -80.359070 -24.528968 -19.496779 103.351170 -0.378587 -8.912444 -18.103169 -4.735793 13.078695 -39.666004 -9.421823 1.562159 29.120379 0.161318 1.185792 11.621461 5.194286 0.949383 -2.906352 -17.195005 -13.182200 2.010162 35.522928 -11.261478 -32.981673 16.632251 -6.364394 -5.954746 0.000000 0.000000 0.000000 27.300844 -30.362643 11.148498 65.206759 -57.540594 38.706176 -26.063190 -86.206956 -42.832649 0.000000 0.000000 0.000000 -7.125000 0.000000 0.000000 -71.082237 59.090056 34.429039 0.000000 0.000000 0.000000 -9.083096 -9.746171 6.315691 -37.843653 -46.739074 -16.851713 -60.727392 -53.145147 -38.166610 0.000000 0.000000 0.000000 7.125000 0.000000 0.000000 -12.753550 -27.029713 -17.442386
-11.559382 13.723047 -1.977166 -12.573550 119.572456 16.654045 0.000000 0.000000 0.000000 -12.785229 7.596703 -19.111497 7.291983 15.561631 49.950567 0.071756 -9.273861 -7.511320 5.253951 -13.655180 -41.890571 0.000000 0.000000 0.000000 20.004839 6.672538 -81.225413 -24.052021 -19.592660 101.928012 -0.411573 -8.564161 -18.145579 -4.887002 13.252029 -40.325461 -9.222589 1.525951 28.891860 0.050015 1.180076 11.552652 4.959033 0.948174 -2.884516 -17.268872 -13.094205 2.034662 35.264360 -11.234191 -32.815753 16.515872 -6.327310 -5.944859 0.000000 0.000000 0.000000 26.871261 -28.977520 11.394708 65.975289 -57.699536 39.354989 -27.596000 -86.470788 -42.171211 0.000000 0.000000 0.000000 -7.125000 0.000000 0.000000 -71.300864 58.386348 33.411764 0.000000 0.000000 0.000000 -9.043160 -9.185524 5.823024 -37.979375 -46.825783 -16.950694 -60.592094 -54.200149 -38.097198 0.000000 0.000000 0.000000 7.125000 0.000000 0.000000 -12.719837 -26.864549 -17.379987
-11.403691 13.727860 -2.088156 -13.107478 119.322586 16.355829 0.000000 0.000000 0.000000 -13.140781 7.587961 -17.869439 6.921921 15.250497 48.551615 0.002458 -8.722307 -5.826469 4.985394 -13.355088 -40.734906 0.000000 0.000000 0.000000 20.137879 7.247663 -82.048673 -23.557484 -19.681849 100.458558 -0.454822 -8.142178 -18.239687 -5.049488 13.434865 -41.027078 -9.036071 1.488223 28.636363 -0.055667 1.172184 11.488981 4.738928 0.944281 -2.843178 -17.380464 -13.049292 2.053137 35.088177 -11.261160 -32.664911 16.434293 -6.322284 -5.906104 0.000000 0.000000 0.000000 26.406878 -27.605182 11.655938 66.628914 -57.827974 39.908100 -29.045457 -86.631328 -41.570214 0.000000 0.000000 0.000000 -7.125000 0.000000 0.000000 -71.561883 57.740191 32.493440 0.000000 0.000000 0.000000 -9.007520 -8.628873 5.335459 -38.126996 -46.919750 -17.058463 -60.527892 -55.330049 -38.101197 0.000000 0.000000 0.000000 7.125000 0.000000 0.000000 -12.687276 -26.822963 -17.330154
-11.248001 13.732673 -2.199147 -13.641407 119.072716 16.057614 0.000000 0.000000 0.000000 -13.496332 7.579220 -16.627380 6.551858 14.939364 47.152663 -0.066840 -8.170753 -4.141617 4.716837 -13.054997 -39.579240 0.000000 0.000000 0.000000 20.270919 7.822789 -82.871934 -23.062947 -19.771038 98.989104 -0.498072 -7.720195 -18.333795 -5.211974 13.617702 -41.728695 -8.849554 1.450495 28.380866 -0.161348 1.164291 11.425311 4.518823 0.940388 -2.801840 -17.492056 -13.004379 2.071611 34.911994 -11.288129 -32.514069 16.352714 -6.317259 -5.867350 0.000000 0.000000 0.000000 25.942495 -26.232845 11.917169 67.282540 -57.956413 40.461212 -30.494914 -86.791868 -40.969217 0.000000 0.000000 0.000000 -7.125000 0.000000 0.000000 -71.822901 57.094033 31.575115 0.000000 0.000000 0.000000 -8.971880 -8.072223 4.847895 -38.274618 -47.013716 -17.166233 -60.463691 -56.459949 -38.105196 0.000000 0.000000 0.000000 7.125000 0.000000 0.000000 -12.654715 -26.781377 -17.280322
-11.086270 13.743948 -2.311039 -14.080828 118.836669 15.854476 0.000000 0.000000 0.000000 -13.770387 7.483903 -15.366361 6.187416 14.592170 45.700522 -0.086195 -7.435533 -2.463948 4.493205 -12.781109 -38.567515 0.000000 0.000000 0.000000 20.536359 8.333486 -83.590380 -22.511796 -19.835074 97.365974 -0.544687 -7.171341 -18.389619 -5.393872 13.809554 -42.488760 -8.502328 1.387014 28.146614 -0.341914 1.152162 11.338712 4.126231 0.941934 -2.796021 -17.453518 -12.953366 2.003993 34.640492 -11.311402 -32.234462 16.175996 -6.312654 -5.800498 0.000000 0.000000 0.000000 25.618357 -24.860929 12.185311 67.706522 -58.034999 40.820830 -32.096605 -87.182891 -40.282517 0.000000 0.000000 0.000000 -7.125000 0.000000 0.000000 -72.086924 56.391351 30.462517 0.000000 0.000000 0.000000 -8.769522 -7.534143 4.348550 -38.359554 -47.067326 -17.228386 -60.496881 -57.372557 -38.126024 0.000000 0.000000 0.000000 7.125000 0.000000 0.000000 -12.661429 -26.825674 -17.293865
-10.923465 13.756370 -2.423091 -14.503448 118.603080 15.668242 0.000000 0.000000 0.000000 -14.029955 7.373196 -14.101970 5.823972 14.238565 44.238925 -0.096671 -6.667662 -0.787555 4.277559 -12.511880 -37.581378 0.000000 0.000000 0.000000 20.825337 8.832731 -84.290193 -21.950580 -19.894640 95.715524 -0.591900 -6.599932 -18.438638 -5.579222 14.003008 -43.259216 -8.126533 1.318954 27.916139 -0.535793 1.139279 11.248037 3.702974 0.944446 -2.796516 -17.388290 -12.901269 1.921068 34.352044 -11.334018 -31.931964 15.982365 -6.308123 -5.728652 0.000000 0.000000 0.000000 25.319150 -23.489087 12.454682 68.089679 -58.104722 41.146050 -33.725359 -87.614890 -39.580581 0.000000 0.000000 0.000000 -7.125000 0.000000 0.000000 -72.351482 55.678621 29.315381 0.000000 0.000000 0.000000 -8.537525 -6.999365 3.847112 -38.433347 -47.113760 -17.282431 -60.547386 -58.246535 -38.149843 0.000000 0.000000 0.000000 7.125000 0.000000 0.000000 -12.675126 -26.885240 -17.318675
-10.760727 13.768594 -2.535076 -14.927850 118.370426 15.479574 0.000000 0.000000 0.000000 -14.289670 7.258735 -12.837662 5.461585 13.884851 42.779357 -0.106201 -5.901296 0.879519 4.067184 -12.249241 -36.619365 0.000000 0.000000 0.000000 21.116023 9.329652 -84.984354 -21.389178 -19.953186 94.064731 -0.639154 -6.027617 -18.488772 -5.764096 14.195680 -44.027144 -7.755653 1.252836 27.686270 -0.725592 1.127915 11.158168 3.286620 0.947439 -2.796449 -17.323875 -12.847817 1.838491 34.057024 -11.355372 -31.632456 15.786969 -6.302197 -5.658953 0.000000 0.000000 0.000000 25.011689 -22.118374 12.721482 68.480878 -58.175655 41.478137 -35.321349 -88.057238 -38.896551 0.000000 0.000000 0.000000 -7.125000 0.000000 0.000000 -72.615467 54.982130 28.198628 0.000000 0.000000 0.000000 -8.312875 -6.466876 3.345489 -38.505473 -47.159145 -17.335253 -60.600224 -59.115662 -38.173621 0.000000 0.000000 0.000000 7.125000 0.000000 0.000000 -12.689961 -26.946434 -17.345240
-10.600754 13.772594 -2.644297 -15.426032 118.176476 15.190135 0.000000 0.000000 0.000000 -14.555501 6.988869 -11.576775 5.142948 13.526610 41.403763 -0.076578 -5.197272 2.160791 4.074970 -12.259470 -36.656031 0.000000 0.000000 0.000000 21.477378 9.730435 -85.444560 -20.820105 -19.969537 92.399735 -0.688102 -5.417772 -18.585110 -5.929272 14.355936 -44.690431 -7.588319 1.267099 27.481490 -0.746438 1.179410 11.101682 3.156022 0.970303 -2.773090 -17.293119 -12.738314 1.770290 33.489862 -11.324510 -31.456769 15.518518 -6.238455 -5.678171 0.000000 0.000000 0.000000 24.362487 -20.794382 12.881845 69.204969 -58.296696 42.094494 -35.560848 -88.928030 -38.953815 0.000000 0.000000 0.000000 -7.125000 0.000000 0.000000 -72.855745 54.957957 28.339737 0.000000 0.000000 0.000000 -8.392366 -6.029144 2.836229 -38.508552 -47.161056 -17.337519 -60.749651 -59.783975 -38.195706 0.000000 0.000000 0.000000 7.125000 0.000000 0.000000 -12.751897 -27.075085 -17.444444
-10.440780 13.776593 -2.753517 -15.924214 117.982526 14.900697 0.000000 0.000000 0.000000 -14.821333 6.719002 -10.315888 4.824311 13.168369 40.028170 -0.046955 -4.493248 3.442064 4.082756 -12.269698 -36.692698 0.000000 0.000000 0.000000 21.838734 10.131218 -85.904767 -20.251032 -19.985888 90.734739 -0.737050 -4.807927 -18.681448 -6.094448 14.516192 -45.353719 -7.420984 1.281363 27.276710 -0.767284 1.230906 11.045195 3.025425 0.993166 -2.749731 -17.262363 -12.628810 1.702089 32.922700 -11.293648 -31.281081 15.250067 -6.174714 -5.697389 0.000000 0.000000 0.000000 23.713286 -19.470391 13.042207 69.929061 -58.417738 42.710851 -35.800348 -89.798823 -39.011080 0.000000 0.000000 0.000000 -7.125000 0.000000 0.000000 -73.096024 54.933784 28.480846 0.000000 0.000000 0.000000 -8.471857 -5.591412 2.326969 -38.511631 -47.162967 -17.339784 -60.899077 -60.452288 -38.217790 0.000000 0.000000 0.000000 7.125000 0.000000 0.000000 -12.813834 -27.203736 -17.543649
-10.279819 13.781062 -2.862366 -16.455758 117.810873 14.552332 0.000000 0.000000 0.000000 -15.097780 6.423165 -9.036933 4.517264 12.814826 38.685328 -0.016981 -3.867951 4.642471 4.132108 -12.331497 -36.918771 0.000000 0.000000 0.000000 22.206456 10.480661 -86.317329 -19.682401 -19.993566 89.070815 -0.788837 -4.133280 -18.785225 -6.243090 14.659642 -45.949196 -7.259959 1.290907 27.104373 -0.796845 1.274892 10.995335 2.890634 1.013674 -2.732676 -17.245658 -12.537256 1.647723 32.422023 -11.277384 -31.124592 15.014284 -6.123775 -5.710900 0.000000 0.000000 0.000000 23.079882 -18.150467 13.230119 70.658123 -58.536775 43.331885 -36.064186 -90.810158 -39.104595 0.000000 0.000000 0.000000 -7.125000 0.000000 0.000000 -73.399632 54.921278 28.698411 0.000000 0.000000 0.000000 -8.529325 -5.158118 1.822196 -38.529294 -47.173980 -17.352756 -61.041429 -61.062068 -38.238431 0.000000 0.000000 0.000000 7.125000 0.000000 0.000000 -12.872994 -27.326035 -17.638387
